<?xml version="1.0" encoding="UTF-8" standalone="no"?>
<!DOCTYPE svg PUBLIC "-//W3C//DTD SVG 1.1//EN"
 "http://www.w3.org/Graphics/SVG/1.1/DTD/svg11.dtd">
<!-- Generated by graphviz version 2.38.0 (20140413.2041)
 -->
<!-- Title: snakemake_dag Pages: 1 -->
<svg width="352pt" height="476pt"
 viewBox="0.00 0.00 351.50 476.00" xmlns="http://www.w3.org/2000/svg" xmlns:xlink="http://www.w3.org/1999/xlink">
<g id="graph0" class="graph" transform="scale(1 1) rotate(0) translate(4 472)">
<title>snakemake_dag</title>
<polygon fill="white" stroke="none" points="-4,4 -4,-472 347.5,-472 347.5,4 -4,4"/>
<!-- 0 -->
<g id="node1" class="node"><title>0</title>
<path fill="none" stroke="#d8cb56" stroke-width="2" d="M127.5,-36C127.5,-36 97.5,-36 97.5,-36 91.5,-36 85.5,-30 85.5,-24 85.5,-24 85.5,-12 85.5,-12 85.5,-6 91.5,-0 97.5,-0 97.5,-0 127.5,-0 127.5,-0 133.5,-0 139.5,-6 139.5,-12 139.5,-12 139.5,-24 139.5,-24 139.5,-30 133.5,-36 127.5,-36"/>
<text text-anchor="middle" x="112.5" y="-15.5" font-family="sans" font-size="10.00">all</text>
</g>
<!-- 1 -->
<g id="node2" class="node"><title>1</title>
<path fill="none" stroke="#d85656" stroke-width="2" d="M145,-108C145,-108 80,-108 80,-108 74,-108 68,-102 68,-96 68,-96 68,-84 68,-84 68,-78 74,-72 80,-72 80,-72 145,-72 145,-72 151,-72 157,-78 157,-84 157,-84 157,-96 157,-96 157,-102 151,-108 145,-108"/>
<text text-anchor="middle" x="112.5" y="-87.5" font-family="sans" font-size="10.00">search_mmseqs</text>
</g>
<!-- 1&#45;&gt;0 -->
<g id="edge1" class="edge"><title>1&#45;&gt;0</title>
<path fill="none" stroke="grey" stroke-width="2" d="M112.5,-71.6966C112.5,-63.9827 112.5,-54.7125 112.5,-46.1124"/>
<polygon fill="grey" stroke="grey" stroke-width="2" points="116,-46.1043 112.5,-36.1043 109,-46.1044 116,-46.1043"/>
</g>
<!-- 2 -->
<g id="node3" class="node"><title>2</title>
<path fill="none" stroke="#d88d56" stroke-width="2" d="M95,-180C95,-180 12,-180 12,-180 6,-180 0,-174 0,-168 0,-168 0,-156 0,-156 0,-150 6,-144 12,-144 12,-144 95,-144 95,-144 101,-144 107,-150 107,-156 107,-156 107,-168 107,-168 107,-174 101,-180 95,-180"/>
<text text-anchor="middle" x="53.5" y="-165" font-family="sans" font-size="10.00">fasta_to_db</text>
<text text-anchor="middle" x="53.5" y="-154" font-family="sans" font-size="10.00">query: 000019625.1</text>
</g>
<!-- 2&#45;&gt;1 -->
<g id="edge2" class="edge"><title>2&#45;&gt;1</title>
<path fill="none" stroke="grey" stroke-width="2" d="M68.0843,-143.697C75.1576,-135.305 83.7834,-125.07 91.5454,-115.861"/>
<polygon fill="grey" stroke="grey" stroke-width="2" points="94.3149,-118.006 98.0835,-108.104 88.9625,-113.495 94.3149,-118.006"/>
</g>
<!-- 3 -->
<g id="node4" class="node"><title>3</title>
<path fill="none" stroke="#56c9d8" stroke-width="2" d="M208,-180C208,-180 137,-180 137,-180 131,-180 125,-174 125,-168 125,-168 125,-156 125,-156 125,-150 131,-144 137,-144 137,-144 208,-144 208,-144 214,-144 220,-150 220,-156 220,-156 220,-168 220,-168 220,-174 214,-180 208,-180"/>
<text text-anchor="middle" x="172.5" y="-159.5" font-family="sans" font-size="10.00">MSAdb_to_profile</text>
</g>
<!-- 3&#45;&gt;1 -->
<g id="edge3" class="edge"><title>3&#45;&gt;1</title>
<path fill="none" stroke="grey" stroke-width="2" d="M157.669,-143.697C150.475,-135.305 141.703,-125.07 133.81,-115.861"/>
<polygon fill="grey" stroke="grey" stroke-width="2" points="136.326,-113.419 127.161,-108.104 131.011,-117.975 136.326,-113.419"/>
</g>
<!-- 4 -->
<g id="node5" class="node"><title>4</title>
<path fill="none" stroke="#5692d8" stroke-width="2" d="M217.5,-252C217.5,-252 127.5,-252 127.5,-252 121.5,-252 115.5,-246 115.5,-240 115.5,-240 115.5,-228 115.5,-228 115.5,-222 121.5,-216 127.5,-216 127.5,-216 217.5,-216 217.5,-216 223.5,-216 229.5,-222 229.5,-228 229.5,-228 229.5,-240 229.5,-240 229.5,-246 223.5,-252 217.5,-252"/>
<text text-anchor="middle" x="172.5" y="-231.5" font-family="sans" font-size="10.00">stockholm_to_MSAdb</text>
</g>
<!-- 4&#45;&gt;3 -->
<g id="edge4" class="edge"><title>4&#45;&gt;3</title>
<path fill="none" stroke="grey" stroke-width="2" d="M172.5,-215.697C172.5,-207.983 172.5,-198.712 172.5,-190.112"/>
<polygon fill="grey" stroke="grey" stroke-width="2" points="176,-190.104 172.5,-180.104 169,-190.104 176,-190.104"/>
</g>
<!-- 5 -->
<g id="node6" class="node"><title>5</title>
<path fill="none" stroke="#56d873" stroke-width="2" d="M223,-324C223,-324 122,-324 122,-324 116,-324 110,-318 110,-312 110,-312 110,-300 110,-300 110,-294 116,-288 122,-288 122,-288 223,-288 223,-288 229,-288 235,-294 235,-300 235,-300 235,-312 235,-312 235,-318 229,-324 223,-324"/>
<text text-anchor="middle" x="172.5" y="-303.5" font-family="sans" font-size="10.00">MSAfasta_to_stockholm</text>
</g>
<!-- 5&#45;&gt;4 -->
<g id="edge5" class="edge"><title>5&#45;&gt;4</title>
<path fill="none" stroke="grey" stroke-width="2" d="M172.5,-287.697C172.5,-279.983 172.5,-270.712 172.5,-262.112"/>
<polygon fill="grey" stroke="grey" stroke-width="2" points="176,-262.104 172.5,-252.104 169,-262.104 176,-262.104"/>
</g>
<!-- 6 -->
<g id="node7" class="node"><title>6</title>
<path fill="none" stroke="#70d856" stroke-width="2" d="M43.5,-396C43.5,-396 13.5,-396 13.5,-396 7.5,-396 1.5,-390 1.5,-384 1.5,-384 1.5,-372 1.5,-372 1.5,-366 7.5,-360 13.5,-360 13.5,-360 43.5,-360 43.5,-360 49.5,-360 55.5,-366 55.5,-372 55.5,-372 55.5,-384 55.5,-384 55.5,-390 49.5,-396 43.5,-396"/>
<text text-anchor="middle" x="28.5" y="-375.5" font-family="sans" font-size="10.00">trim</text>
</g>
<!-- 6&#45;&gt;5 -->
<g id="edge6" class="edge"><title>6&#45;&gt;5</title>
<path fill="none" stroke="grey" stroke-width="2" d="M55.5853,-363.834C76.0117,-353.904 104.468,-340.071 128.192,-328.538"/>
<polygon fill="grey" stroke="grey" stroke-width="2" points="129.896,-331.602 137.36,-324.082 126.836,-325.306 129.896,-331.602"/>
</g>
<!-- 7 -->
<g id="node8" class="node"><title>7</title>
<path fill="none" stroke="#70d856" stroke-width="2" d="M115.5,-396C115.5,-396 85.5,-396 85.5,-396 79.5,-396 73.5,-390 73.5,-384 73.5,-384 73.5,-372 73.5,-372 73.5,-366 79.5,-360 85.5,-360 85.5,-360 115.5,-360 115.5,-360 121.5,-360 127.5,-366 127.5,-372 127.5,-372 127.5,-384 127.5,-384 127.5,-390 121.5,-396 115.5,-396"/>
<text text-anchor="middle" x="100.5" y="-375.5" font-family="sans" font-size="10.00">trim</text>
</g>
<!-- 7&#45;&gt;5 -->
<g id="edge7" class="edge"><title>7&#45;&gt;5</title>
<path fill="none" stroke="grey" stroke-width="2" d="M118.298,-359.697C127.104,-351.135 137.882,-340.656 147.501,-331.304"/>
<polygon fill="grey" stroke="grey" stroke-width="2" points="150.177,-333.585 154.907,-324.104 145.297,-328.566 150.177,-333.585"/>
</g>
<!-- 8 -->
<g id="node9" class="node"><title>8</title>
<path fill="none" stroke="#70d856" stroke-width="2" d="M187.5,-396C187.5,-396 157.5,-396 157.5,-396 151.5,-396 145.5,-390 145.5,-384 145.5,-384 145.5,-372 145.5,-372 145.5,-366 151.5,-360 157.5,-360 157.5,-360 187.5,-360 187.5,-360 193.5,-360 199.5,-366 199.5,-372 199.5,-372 199.5,-384 199.5,-384 199.5,-390 193.5,-396 187.5,-396"/>
<text text-anchor="middle" x="172.5" y="-375.5" font-family="sans" font-size="10.00">trim</text>
</g>
<!-- 8&#45;&gt;5 -->
<g id="edge8" class="edge"><title>8&#45;&gt;5</title>
<path fill="none" stroke="grey" stroke-width="2" d="M172.5,-359.697C172.5,-351.983 172.5,-342.712 172.5,-334.112"/>
<polygon fill="grey" stroke="grey" stroke-width="2" points="176,-334.104 172.5,-324.104 169,-334.104 176,-334.104"/>
</g>
<!-- 9 -->
<g id="node10" class="node"><title>9</title>
<path fill="none" stroke="#70d856" stroke-width="2" d="M259.5,-396C259.5,-396 229.5,-396 229.5,-396 223.5,-396 217.5,-390 217.5,-384 217.5,-384 217.5,-372 217.5,-372 217.5,-366 223.5,-360 229.5,-360 229.5,-360 259.5,-360 259.5,-360 265.5,-360 271.5,-366 271.5,-372 271.5,-372 271.5,-384 271.5,-384 271.5,-390 265.5,-396 259.5,-396"/>
<text text-anchor="middle" x="244.5" y="-375.5" font-family="sans" font-size="10.00">trim</text>
</g>
<!-- 9&#45;&gt;5 -->
<g id="edge9" class="edge"><title>9&#45;&gt;5</title>
<path fill="none" stroke="grey" stroke-width="2" d="M226.702,-359.697C217.896,-351.135 207.118,-340.656 197.499,-331.304"/>
<polygon fill="grey" stroke="grey" stroke-width="2" points="199.703,-328.566 190.093,-324.104 194.823,-333.585 199.703,-328.566"/>
</g>
<!-- 10 -->
<g id="node11" class="node"><title>10</title>
<path fill="none" stroke="#70d856" stroke-width="2" d="M331.5,-396C331.5,-396 301.5,-396 301.5,-396 295.5,-396 289.5,-390 289.5,-384 289.5,-384 289.5,-372 289.5,-372 289.5,-366 295.5,-360 301.5,-360 301.5,-360 331.5,-360 331.5,-360 337.5,-360 343.5,-366 343.5,-372 343.5,-372 343.5,-384 343.5,-384 343.5,-390 337.5,-396 331.5,-396"/>
<text text-anchor="middle" x="316.5" y="-375.5" font-family="sans" font-size="10.00">trim</text>
</g>
<!-- 10&#45;&gt;5 -->
<g id="edge10" class="edge"><title>10&#45;&gt;5</title>
<path fill="none" stroke="grey" stroke-width="2" d="M289.415,-363.834C268.988,-353.904 240.532,-340.071 216.808,-328.538"/>
<polygon fill="grey" stroke="grey" stroke-width="2" points="218.164,-325.306 207.64,-324.082 215.104,-331.602 218.164,-325.306"/>
</g>
<!-- 11 -->
<g id="node12" class="node"><title>11</title>
<path fill="none" stroke="#afd856" stroke-width="2" d="M43.5,-468C43.5,-468 13.5,-468 13.5,-468 7.5,-468 1.5,-462 1.5,-456 1.5,-456 1.5,-444 1.5,-444 1.5,-438 7.5,-432 13.5,-432 13.5,-432 43.5,-432 43.5,-432 49.5,-432 55.5,-438 55.5,-444 55.5,-444 55.5,-456 55.5,-456 55.5,-462 49.5,-468 43.5,-468"/>
<text text-anchor="middle" x="28.5" y="-453" font-family="sans" font-size="10.00">align</text>
<text text-anchor="middle" x="28.5" y="-442" font-family="sans" font-size="10.00">og_id: 1</text>
</g>
<!-- 11&#45;&gt;6 -->
<g id="edge11" class="edge"><title>11&#45;&gt;6</title>
<path fill="none" stroke="grey" stroke-width="2" d="M28.5,-431.697C28.5,-423.983 28.5,-414.712 28.5,-406.112"/>
<polygon fill="grey" stroke="grey" stroke-width="2" points="32.0001,-406.104 28.5,-396.104 25.0001,-406.104 32.0001,-406.104"/>
</g>
<!-- 12 -->
<g id="node13" class="node"><title>12</title>
<path fill="none" stroke="#afd856" stroke-width="2" d="M115.5,-468C115.5,-468 85.5,-468 85.5,-468 79.5,-468 73.5,-462 73.5,-456 73.5,-456 73.5,-444 73.5,-444 73.5,-438 79.5,-432 85.5,-432 85.5,-432 115.5,-432 115.5,-432 121.5,-432 127.5,-438 127.5,-444 127.5,-444 127.5,-456 127.5,-456 127.5,-462 121.5,-468 115.5,-468"/>
<text text-anchor="middle" x="100.5" y="-453" font-family="sans" font-size="10.00">align</text>
<text text-anchor="middle" x="100.5" y="-442" font-family="sans" font-size="10.00">og_id: 4</text>
</g>
<!-- 12&#45;&gt;7 -->
<g id="edge12" class="edge"><title>12&#45;&gt;7</title>
<path fill="none" stroke="grey" stroke-width="2" d="M100.5,-431.697C100.5,-423.983 100.5,-414.712 100.5,-406.112"/>
<polygon fill="grey" stroke="grey" stroke-width="2" points="104,-406.104 100.5,-396.104 97.0001,-406.104 104,-406.104"/>
</g>
<!-- 13 -->
<g id="node14" class="node"><title>13</title>
<path fill="none" stroke="#afd856" stroke-width="2" d="M187.5,-468C187.5,-468 157.5,-468 157.5,-468 151.5,-468 145.5,-462 145.5,-456 145.5,-456 145.5,-444 145.5,-444 145.5,-438 151.5,-432 157.5,-432 157.5,-432 187.5,-432 187.5,-432 193.5,-432 199.5,-438 199.5,-444 199.5,-444 199.5,-456 199.5,-456 199.5,-462 193.5,-468 187.5,-468"/>
<text text-anchor="middle" x="172.5" y="-453" font-family="sans" font-size="10.00">align</text>
<text text-anchor="middle" x="172.5" y="-442" font-family="sans" font-size="10.00">og_id: 0</text>
</g>
<!-- 13&#45;&gt;8 -->
<g id="edge13" class="edge"><title>13&#45;&gt;8</title>
<path fill="none" stroke="grey" stroke-width="2" d="M172.5,-431.697C172.5,-423.983 172.5,-414.712 172.5,-406.112"/>
<polygon fill="grey" stroke="grey" stroke-width="2" points="176,-406.104 172.5,-396.104 169,-406.104 176,-406.104"/>
</g>
<!-- 14 -->
<g id="node15" class="node"><title>14</title>
<path fill="none" stroke="#afd856" stroke-width="2" d="M259.5,-468C259.5,-468 229.5,-468 229.5,-468 223.5,-468 217.5,-462 217.5,-456 217.5,-456 217.5,-444 217.5,-444 217.5,-438 223.5,-432 229.5,-432 229.5,-432 259.5,-432 259.5,-432 265.5,-432 271.5,-438 271.5,-444 271.5,-444 271.5,-456 271.5,-456 271.5,-462 265.5,-468 259.5,-468"/>
<text text-anchor="middle" x="244.5" y="-453" font-family="sans" font-size="10.00">align</text>
<text text-anchor="middle" x="244.5" y="-442" font-family="sans" font-size="10.00">og_id: 2</text>
</g>
<!-- 14&#45;&gt;9 -->
<g id="edge14" class="edge"><title>14&#45;&gt;9</title>
<path fill="none" stroke="grey" stroke-width="2" d="M244.5,-431.697C244.5,-423.983 244.5,-414.712 244.5,-406.112"/>
<polygon fill="grey" stroke="grey" stroke-width="2" points="248,-406.104 244.5,-396.104 241,-406.104 248,-406.104"/>
</g>
<!-- 15 -->
<g id="node16" class="node"><title>15</title>
<path fill="none" stroke="#afd856" stroke-width="2" d="M331.5,-468C331.5,-468 301.5,-468 301.5,-468 295.5,-468 289.5,-462 289.5,-456 289.5,-456 289.5,-444 289.5,-444 289.5,-438 295.5,-432 301.5,-432 301.5,-432 331.5,-432 331.5,-432 337.5,-432 343.5,-438 343.5,-444 343.5,-444 343.5,-456 343.5,-456 343.5,-462 337.5,-468 331.5,-468"/>
<text text-anchor="middle" x="316.5" y="-453" font-family="sans" font-size="10.00">align</text>
<text text-anchor="middle" x="316.5" y="-442" font-family="sans" font-size="10.00">og_id: 3</text>
</g>
<!-- 15&#45;&gt;10 -->
<g id="edge15" class="edge"><title>15&#45;&gt;10</title>
<path fill="none" stroke="grey" stroke-width="2" d="M316.5,-431.697C316.5,-423.983 316.5,-414.712 316.5,-406.112"/>
<polygon fill="grey" stroke="grey" stroke-width="2" points="320,-406.104 316.5,-396.104 313,-406.104 320,-406.104"/>
</g>
</g>
</svg>
